<?xml version="1.0" encoding="UTF-8"?>
<svg viewBox="0 0 640 480" xmlns="http://www.w3.org/2000/svg">
 <defs>
  <linearGradient id="d" x1=".38672" x2=".70703" y1=".64844" y2=".48047">
   <stop stop-color="#d13434" offset="0"/>
   <stop stop-color="#faa" offset="1"/>
  </linearGradient>
  <linearGradient id="c" x1=".42578" x2=".80078" y1=".16797" y2=".30469">
   <stop stop-color="#cc4986" offset="0"/>
   <stop stop-color="#ffaad4" offset="1"/>
  </linearGradient>
 </defs>
 <path d="m303.3 66.911l-78.56-22.199c-22.546 72.442-51.001 126.87-24.146 210.26-2.921 65.596-23.981 130.49-37.894 130.69-18.463 0.26901-40.208-4.955-39.283 3.747l-0.436 6.677c8.985 7.147 22.695 13.871 49.659 23.283 31.101 6.331 41.728 5.452 55.401 5.646l2.548-7.366c3.381-9.772-8.188-11.298-32.88-23.182-15.885-7.645 3.239-83.126 30.174-136.21 58.949-54.492 61.26-136.73 75.417-191.35z" fill="url(#c)"/>
 <path d="m281.43 64.746l-34.766 132.86s-3.084 11.499-0.76601 12.189c2.485 0.739 6.003-11.515 6.003-11.515l35.154-132.75-5.625-0.7781z" fill="#fff" opacity=".863"/>
 <path d="m398 25.279l-87.059 22.063c18.367 81.422 21.195 148.93 92.654 213.61 33.299 64.102 48.932 137.52 35.787 145.36-17.443 10.412-41.034 17.397-35.365 25.179l3.258 6.602c12.49 1.866 29.252 0.73099 60.119-5.134 33.114-11.076 42.756-17.759 55.889-25.095l-1.623-8.42c-2.154-11.17-14.017-6.26-44.08-4-19.34 1.454-42.639-80.98-46.177-146.37 26.19-84.345-16.845-163.97-33.403-223.8v-9.9e-5z" fill="url(#d)"/>
 <path d="m375.97 35.244l39.958 145.7s3.386 12.653 5.976 12.035c2.773-0.66199-0.616-14.273-0.616-14.273l-39.53-145.82-5.788 2.3526z" fill="#fff" opacity=".815"/>
</svg>
