<?xml version="1.0" encoding="UTF-8"?>
<svg viewBox="0 0 640 480" xmlns="http://www.w3.org/2000/svg">
 <g stroke-width="0">
  <rect x="-21" y="-5" width="698" height="505" stroke="#326cd2"/>
  <g fill="#fff">
   <path d="m303.3 66.911l-78.56-22.199c-22.546 72.442-51.001 126.87-24.146 210.26-2.921 65.596-23.981 130.49-37.894 130.69-18.463 0.26901-40.208-4.955-39.283 3.747l-0.436 6.677c8.985 7.147 22.695 13.871 49.659 23.283 31.101 6.331 41.728 5.452 55.401 5.646l2.548-7.366c3.381-9.772-8.188-11.298-32.88-23.182-15.885-7.645 3.239-83.126 30.174-136.21 58.949-54.492 61.26-136.73 75.417-191.35z" stroke="#fba35f"/>
   <path d="m396 27.279l-87.059 22.063c18.367 81.422 21.195 148.93 92.654 213.61 33.299 64.102 48.932 137.52 35.787 145.36-17.443 10.412-41.034 17.397-35.365 25.179l3.258 6.602c12.49 1.866 29.252 0.73099 60.119-5.134 33.114-11.076 42.756-17.759 55.889-25.095l-1.623-8.42c-2.154-11.17-14.017-6.26-44.08-4-19.34 1.454-42.639-80.98-46.177-146.37 26.19-84.345-16.845-163.97-33.403-223.8v-1.09e-4z" stroke="#326cd2"/>
  </g>
 </g>
</svg>
