<?xml version="1.0" encoding="UTF-8"?>
<svg width="512" height="512" version="1.1" viewBox="0 0 512.00001 512.00001" xmlns="http://www.w3.org/2000/svg">
 <rect width="512" height="512" fill-opacity="0"/>
 <path d="m391.52 106.68c-0.3006-0.0117-0.61343-0.0125-0.93559 1e-3 -0.62298 0.027-1.2004 0.0955-1.74 0.17441a3.5482 3.5482 0 0 0 -3e-3 3e-3c-0.24177 0.0355-0.41335 0.0671-0.52052 0.0852-0.3207 0.0542-0.65844 0.11716-0.99238 0.18388a3.5482 3.5482 0 0 0 -3e-3 0c-0.71762 0.14394-1.4432 0.30112-2.2173 0.4705-0.91894 0.20104-1.9029 0.51845-3.1434 0.95587-6.1953 2.1846-17.934 7.3042-25.948 11.695-1.596 0.87435-3.0396 1.7195-4.2872 2.531-1.6e-4 5e-5 -8e-3 5e-3 -8e-3 5e-3 -2e-3 9.7e-4 -4e-3 1e-3 -5e-3 3e-3a3.5482 3.5482 0 0 0 -8e-3 3e-3c-1.2511 0.81477-2.2863 1.5603-3.1853 2.4593l-45.73 45.73-29.595-2.0456 2.489-2.489c3.0466-3.0466 3.0466-8.1075 0-11.154l-5.7961-5.7961c-3.0478-3.048-8.1088-3.0426-11.154 3e-3l-17.248 17.246-31.832-2.2011 2.6337-2.6337c3.0466-3.0466 3.0466-8.1075 0-11.154l-5.7961-5.7961c-3.0466-3.0466-8.1075-3.0466-11.154 0l-17.388 17.391-40.13-2.7743a3.5482 3.5482 0 0 0 -0.12168 -5e-3s-1.6574-0.0647-3.6369 0.19334c-1.9795 0.25798-4.4922 0.56734-6.6911 2.7662l-10.197 10.198 0.25958-0.23525s-2.4145 2.3112-1.352 5.0754c0.53123 1.3821 1.5657 2.2432 2.6608 2.8649 1.0951 0.62185 2.3844 1.0852 4.1223 1.5197 5.6354 1.4088 70.783 19.29 84.249 24.497 9.0223 3.4886 25.395 10.953 40.197 20.011l-87.479 87.479-34.456-3.5828a3.5482 3.5482 0 0 0 -0.39344 -0.0203s-2.0001 0.0114-4.3683 0.38532c-2.3683 0.37324-5.2591 0.79602-7.6808 3.2178-0.74271 0.74273-3.0014 2.0724-4.7902 4.4305-0.89437 1.179-1.7785 3.0515-1.3831 5.139 0.39544 2.0875 1.8224 3.6436 3.5761 4.8578 4.1154 2.849 20.944 13.235 32.748 20.524-0.90081 4.0486-1.5396 8.1834-0.4732 12.16 0.34336 1.2802 0.87395 2.5412 1.6522 3.6977 0.39336 0.58455 0.84495 1.1316 1.3466 1.6332 2.6669 2.6669 6.2868 3.5182 9.7318 3.5504 2.5897 0.0242 5.2013-0.4255 7.7835-0.98426 7.2871 11.802 17.652 28.598 20.498 32.708 1.2142 1.7538 2.7703 3.1807 4.8578 3.5761 2.0875 0.39542 3.9599-0.48873 5.139-1.3831 2.3581-1.7887 3.6879-4.0475 4.4305-4.7902 2.4217-2.4217 2.8445-5.3126 3.2178-7.6808 0.37325-2.3682 0.38532-4.3683 0.38532-4.3683a3.5482 3.5482 0 0 0 -0.0189 -0.39344l-3.5842-34.456 87.479-87.48c9.0581 14.802 16.521 31.175 20.011 40.197 5.207 13.466 23.088 78.615 24.497 84.25 0.43447 1.7379 0.89783 3.0259 1.5196 4.1209 0.62184 1.095 1.4841 2.1309 2.8663 2.6621 2.7643 1.0624 5.0754-1.3534 5.0754-1.3534l-0.23659 0.26094 10.198-10.198c2.1989-2.1989 2.5082-4.7116 2.7662-6.6911 0.25798-1.9795 0.19334-3.6369 0.19334-3.6369a3.5482 3.5482 0 0 0 -5e-3 -0.12168l-2.7743-40.13 17.391-17.387c3.0466-3.0466 3.0466-8.1075 0-11.154l-5.7961-5.7961c-3.0466-3.0466-8.1075-3.0466-11.154 0l-2.6337 2.6324-2.1997-31.832 17.245-17.246c3.0452-3.0452 3.0506-8.1061 3e-3 -11.154l-5.7961-5.7947c-3.0466-3.0466-8.1062-3.0466-11.153 0l-2.4904 2.489-2.0456-29.597 45.73-45.729c1.7995-1.7995 3.2448-4.2898 5.0011-7.4955 1.7564-3.2059 3.6227-7.0107 5.3796-10.824 1.7571-3.8135 3.4011-7.6269 4.6847-10.832 1.2836-3.2054 2.1828-5.59 2.5864-7.4347 0.52811-2.4138 1.1797-4.7238 0.845-7.4969s-1.8462-5.5169-4.4819-8.1526c-0.60921-0.60921-1.1924-1.1201-1.7346-1.5602a3.5482 3.5482 0 0 0 -3e-3 0c-0.11736-0.0952-0.29346-0.2475-0.55162-0.44076-0.11396-0.0854-0.22616-0.16666-0.338-0.24606-0.30553-0.2168-0.60888-0.4134-0.90179-0.59084 2e-3 1e-3 -0.0832-0.0567-0.26906-0.16359-0.35479-0.20396-0.74585-0.41593-1.1992-0.61516-0.42734-0.1878-0.83283-0.3292-1.2006-0.44346-0.25076-0.0779-0.38656-0.10902-0.39344-0.11087-0.25558-0.0691-0.52667-0.13214-0.81255-0.18657-0.12661-0.024-0.2811-0.0549-0.47051-0.0825-0.28069-0.0409-0.44766-0.048-0.49348-0.0527-0.27768-0.0281-0.5683-0.0505-0.86934-0.0622z" color="#000000" color-rendering="auto" fill="#555" fill-rule="evenodd" image-rendering="auto" shape-rendering="auto" solid-color="#000000" style="block-progression:tb;isolation:auto;mix-blend-mode:normal;text-decoration-color:#000000;text-decoration-line:none;text-decoration-style:solid;text-indent:0;text-transform:none;white-space:normal"/>
</svg>
