<?xml version="1.0" encoding="UTF-8"?>
<svg version="1.1" viewBox="0 0 150.51 187.14" xmlns="http://www.w3.org/2000/svg" xmlns:xlink="http://www.w3.org/1999/xlink">
 <defs>
  <filter id="a" x="-.086785" y="-.24199" width="1.1736" height="1.484" color-interpolation-filters="sRGB">
   <feGaussianBlur stdDeviation="4.9572648"/>
  </filter>
  <filter id="c" color-interpolation-filters="sRGB">
   <feGaussianBlur stdDeviation="12.237074"/>
  </filter>
  <linearGradient id="b" x1="516.44" x2="515.66" y1="727.92" y2="476.36" gradientUnits="userSpaceOnUse">
   <stop stop-opacity=".46948" offset="0"/>
  </linearGradient>
 </defs>
 <g transform="translate(-3.7402 -7.0113)">
  <g transform="matrix(.41341 0 0 .41341 -127.93 -80.191)">
   <rect x="347.86" y="240.3" width="305.33" height="393.93" ry="23.51" fill-rule="evenodd" filter="url(#c)"/>
   <rect x="646.8" y="271.83" width="13.322" height="83.069" ry="4.702" fill="#808000" fill-rule="evenodd"/>
   <path d="m646.8 354.36v41.937c0 1.5153 2.0826 2.7449 4.6875 2.7449h3.9062c2.6049 0 4.7188-1.2296 4.7188-2.7449v-41.937c0 1.5153-2.1138 2.7267-4.7188 2.7267h-3.9062c-2.6049 0-4.6875-1.2114-4.6875-2.7267z" fill="#800000" fill-rule="evenodd"/>
   <path d="m646.8 398.52v41.937c0 1.5153 2.0826 2.7449 4.6875 2.7449h3.9062c2.6049 0 4.7188-1.2296 4.7188-2.7449v-41.937c0 1.5153-2.1138 2.7267-4.7188 2.7267h-3.9062c-2.6049 0-4.6875-1.2114-4.6875-2.7267z" fill="#008000" fill-rule="evenodd"/>
   <path d="m646.8 442.67v31.64c0 1.1432 2.0826 2.0709 4.6875 2.0709h3.9062c2.6049 0 4.7188-0.92768 4.7188-2.0709v-31.64c0 1.1432-2.1138 2.0572-4.7188 2.0572h-3.9062c-2.6049 0-4.6875-0.91398-4.6875-2.0572z" fill="#800080" fill-rule="evenodd"/>
   <rect x="347.86" y="240.3" width="305.33" height="393.93" ry="23.51" fill="#520" fill-rule="evenodd"/>
   <g transform="translate(0,6)">
    <g transform="translate(2.7429 -.00011726)">
     <path transform="matrix(1.1667 0 0 1.1667 -110.85 -97.982)" d="m409.08 317.28c0 2.5969-2.1052 4.702-4.702 4.702-2.5969 0-4.702-2.1052-4.702-4.702s2.1052-4.702 4.702-4.702c2.5969 0 4.702 2.1052 4.702 4.702z" fill="#fff" fill-rule="evenodd"/>
     <path transform="matrix(.033477 .19292 -.39889 .01619 459.28 241.54)" d="m234.72 306.72c-19.003 25.071-53.536 29.028-77.132 8.8379-16.274-13.925-23.69-36.464-19.125-58.129" fill="none" stroke="#999" stroke-linecap="round" stroke-width="25.146"/>
     <path transform="matrix(.033477 .19292 -.39889 .01619 459.28 241.54)" d="m234.72 306.72c-19.003 25.071-53.536 29.028-77.132 8.8379-16.274-13.925-23.69-36.464-19.125-58.129" fill="none" filter="url(#a)" stroke="#fff" stroke-linecap="round" stroke-width="10.777"/>
    </g>
    <g transform="translate(2.7429 19.957)">
     <path transform="matrix(1.1667 0 0 1.1667 -110.85 -97.982)" d="m409.08 317.28c0 2.5969-2.1052 4.702-4.702 4.702-2.5969 0-4.702-2.1052-4.702-4.702s2.1052-4.702 4.702-4.702c2.5969 0 4.702 2.1052 4.702 4.702z" fill="#fff" fill-rule="evenodd"/>
     <path transform="matrix(.033477 .19292 -.39889 .01619 459.28 241.54)" d="m234.72 306.72c-19.003 25.071-53.536 29.028-77.132 8.8379-16.274-13.925-23.69-36.464-19.125-58.129" fill="none" stroke="#999" stroke-linecap="round" stroke-width="25.146"/>
     <path transform="matrix(.033477 .19292 -.39889 .01619 459.28 241.54)" d="m234.72 306.72c-19.003 25.071-53.536 29.028-77.132 8.8379-16.274-13.925-23.69-36.464-19.125-58.129" fill="none" filter="url(#a)" stroke="#fff" stroke-linecap="round" stroke-width="10.777"/>
    </g>
    <g transform="translate(2.7429 39.915)">
     <path transform="matrix(1.1667 0 0 1.1667 -110.85 -97.982)" d="m409.08 317.28c0 2.5969-2.1052 4.702-4.702 4.702-2.5969 0-4.702-2.1052-4.702-4.702s2.1052-4.702 4.702-4.702c2.5969 0 4.702 2.1052 4.702 4.702z" fill="#fff" fill-rule="evenodd"/>
     <path transform="matrix(.033477 .19292 -.39889 .01619 459.28 241.54)" d="m234.72 306.72c-19.003 25.071-53.536 29.028-77.132 8.8379-16.274-13.925-23.69-36.464-19.125-58.129" fill="none" stroke="#999" stroke-linecap="round" stroke-width="25.146"/>
     <path transform="matrix(.033477 .19292 -.39889 .01619 459.28 241.54)" d="m234.72 306.72c-19.003 25.071-53.536 29.028-77.132 8.8379-16.274-13.925-23.69-36.464-19.125-58.129" fill="none" filter="url(#a)" stroke="#fff" stroke-linecap="round" stroke-width="10.777"/>
    </g>
    <g transform="translate(2.7429 59.872)">
     <path transform="matrix(1.1667 0 0 1.1667 -110.85 -97.982)" d="m409.08 317.28c0 2.5969-2.1052 4.702-4.702 4.702-2.5969 0-4.702-2.1052-4.702-4.702s2.1052-4.702 4.702-4.702c2.5969 0 4.702 2.1052 4.702 4.702z" fill="#fff" fill-rule="evenodd"/>
     <path transform="matrix(.033477 .19292 -.39889 .01619 459.28 241.54)" d="m234.72 306.72c-19.003 25.071-53.536 29.028-77.132 8.8379-16.274-13.925-23.69-36.464-19.125-58.129" fill="none" stroke="#999" stroke-linecap="round" stroke-width="25.146"/>
     <path transform="matrix(.033477 .19292 -.39889 .01619 459.28 241.54)" d="m234.72 306.72c-19.003 25.071-53.536 29.028-77.132 8.8379-16.274-13.925-23.69-36.464-19.125-58.129" fill="none" filter="url(#a)" stroke="#fff" stroke-linecap="round" stroke-width="10.777"/>
    </g>
    <g transform="translate(2.7429 79.83)">
     <path transform="matrix(1.1667 0 0 1.1667 -110.85 -97.982)" d="m409.08 317.28c0 2.5969-2.1052 4.702-4.702 4.702-2.5969 0-4.702-2.1052-4.702-4.702s2.1052-4.702 4.702-4.702c2.5969 0 4.702 2.1052 4.702 4.702z" fill="#fff" fill-rule="evenodd"/>
     <path transform="matrix(.033477 .19292 -.39889 .01619 459.28 241.54)" d="m234.72 306.72c-19.003 25.071-53.536 29.028-77.132 8.8379-16.274-13.925-23.69-36.464-19.125-58.129" fill="none" stroke="#999" stroke-linecap="round" stroke-width="25.146"/>
     <path transform="matrix(.033477 .19292 -.39889 .01619 459.28 241.54)" d="m234.72 306.72c-19.003 25.071-53.536 29.028-77.132 8.8379-16.274-13.925-23.69-36.464-19.125-58.129" fill="none" filter="url(#a)" stroke="#fff" stroke-linecap="round" stroke-width="10.777"/>
    </g>
    <g transform="translate(2.7429 99.787)">
     <path transform="matrix(1.1667 0 0 1.1667 -110.85 -97.982)" d="m409.08 317.28c0 2.5969-2.1052 4.702-4.702 4.702-2.5969 0-4.702-2.1052-4.702-4.702s2.1052-4.702 4.702-4.702c2.5969 0 4.702 2.1052 4.702 4.702z" fill="#fff" fill-rule="evenodd"/>
     <path transform="matrix(.033477 .19292 -.39889 .01619 459.28 241.54)" d="m234.72 306.72c-19.003 25.071-53.536 29.028-77.132 8.8379-16.274-13.925-23.69-36.464-19.125-58.129" fill="none" stroke="#999" stroke-linecap="round" stroke-width="25.146"/>
     <path transform="matrix(.033477 .19292 -.39889 .01619 459.28 241.54)" d="m234.72 306.72c-19.003 25.071-53.536 29.028-77.132 8.8379-16.274-13.925-23.69-36.464-19.125-58.129" fill="none" filter="url(#a)" stroke="#fff" stroke-linecap="round" stroke-width="10.777"/>
    </g>
    <g transform="translate(2.7429 119.74)">
     <path transform="matrix(1.1667 0 0 1.1667 -110.85 -97.982)" d="m409.08 317.28c0 2.5969-2.1052 4.702-4.702 4.702-2.5969 0-4.702-2.1052-4.702-4.702s2.1052-4.702 4.702-4.702c2.5969 0 4.702 2.1052 4.702 4.702z" fill="#fff" fill-rule="evenodd"/>
     <path transform="matrix(.033477 .19292 -.39889 .01619 459.28 241.54)" d="m234.72 306.72c-19.003 25.071-53.536 29.028-77.132 8.8379-16.274-13.925-23.69-36.464-19.125-58.129" fill="none" stroke="#999" stroke-linecap="round" stroke-width="25.146"/>
     <path transform="matrix(.033477 .19292 -.39889 .01619 459.28 241.54)" d="m234.72 306.72c-19.003 25.071-53.536 29.028-77.132 8.8379-16.274-13.925-23.69-36.464-19.125-58.129" fill="none" filter="url(#a)" stroke="#fff" stroke-linecap="round" stroke-width="10.777"/>
    </g>
    <g transform="translate(2.7429 139.7)">
     <path transform="matrix(1.1667 0 0 1.1667 -110.85 -97.982)" d="m409.08 317.28c0 2.5969-2.1052 4.702-4.702 4.702-2.5969 0-4.702-2.1052-4.702-4.702s2.1052-4.702 4.702-4.702c2.5969 0 4.702 2.1052 4.702 4.702z" fill="#fff" fill-rule="evenodd"/>
     <path transform="matrix(.033477 .19292 -.39889 .01619 459.28 241.54)" d="m234.72 306.72c-19.003 25.071-53.536 29.028-77.132 8.8379-16.274-13.925-23.69-36.464-19.125-58.129" fill="none" stroke="#999" stroke-linecap="round" stroke-width="25.146"/>
     <path transform="matrix(.033477 .19292 -.39889 .01619 459.28 241.54)" d="m234.72 306.72c-19.003 25.071-53.536 29.028-77.132 8.8379-16.274-13.925-23.69-36.464-19.125-58.129" fill="none" filter="url(#a)" stroke="#fff" stroke-linecap="round" stroke-width="10.777"/>
    </g>
    <g transform="translate(2.7429 159.66)">
     <path transform="matrix(1.1667 0 0 1.1667 -110.85 -97.982)" d="m409.08 317.28c0 2.5969-2.1052 4.702-4.702 4.702-2.5969 0-4.702-2.1052-4.702-4.702s2.1052-4.702 4.702-4.702c2.5969 0 4.702 2.1052 4.702 4.702z" fill="#fff" fill-rule="evenodd"/>
     <path transform="matrix(.033477 .19292 -.39889 .01619 459.28 241.54)" d="m234.72 306.72c-19.003 25.071-53.536 29.028-77.132 8.8379-16.274-13.925-23.69-36.464-19.125-58.129" fill="none" stroke="#999" stroke-linecap="round" stroke-width="25.146"/>
     <path transform="matrix(.033477 .19292 -.39889 .01619 459.28 241.54)" d="m234.72 306.72c-19.003 25.071-53.536 29.028-77.132 8.8379-16.274-13.925-23.69-36.464-19.125-58.129" fill="none" filter="url(#a)" stroke="#fff" stroke-linecap="round" stroke-width="10.777"/>
    </g>
    <g transform="translate(2.7429 179.62)">
     <path transform="matrix(1.1667 0 0 1.1667 -110.85 -97.982)" d="m409.08 317.28c0 2.5969-2.1052 4.702-4.702 4.702-2.5969 0-4.702-2.1052-4.702-4.702s2.1052-4.702 4.702-4.702c2.5969 0 4.702 2.1052 4.702 4.702z" fill="#fff" fill-rule="evenodd"/>
     <path transform="matrix(.033477 .19292 -.39889 .01619 459.28 241.54)" d="m234.72 306.72c-19.003 25.071-53.536 29.028-77.132 8.8379-16.274-13.925-23.69-36.464-19.125-58.129" fill="none" stroke="#999" stroke-linecap="round" stroke-width="25.146"/>
     <path transform="matrix(.033477 .19292 -.39889 .01619 459.28 241.54)" d="m234.72 306.72c-19.003 25.071-53.536 29.028-77.132 8.8379-16.274-13.925-23.69-36.464-19.125-58.129" fill="none" filter="url(#a)" stroke="#fff" stroke-linecap="round" stroke-width="10.777"/>
    </g>
    <g transform="translate(2.7429 199.58)">
     <path transform="matrix(1.1667 0 0 1.1667 -110.85 -97.982)" d="m409.08 317.28c0 2.5969-2.1052 4.702-4.702 4.702-2.5969 0-4.702-2.1052-4.702-4.702s2.1052-4.702 4.702-4.702c2.5969 0 4.702 2.1052 4.702 4.702z" fill="#fff" fill-rule="evenodd"/>
     <path transform="matrix(.033477 .19292 -.39889 .01619 459.28 241.54)" d="m234.72 306.72c-19.003 25.071-53.536 29.028-77.132 8.8379-16.274-13.925-23.69-36.464-19.125-58.129" fill="none" stroke="#999" stroke-linecap="round" stroke-width="25.146"/>
     <path transform="matrix(.033477 .19292 -.39889 .01619 459.28 241.54)" d="m234.72 306.72c-19.003 25.071-53.536 29.028-77.132 8.8379-16.274-13.925-23.69-36.464-19.125-58.129" fill="none" filter="url(#a)" stroke="#fff" stroke-linecap="round" stroke-width="10.777"/>
    </g>
    <g transform="translate(2.7429 219.53)">
     <path transform="matrix(1.1667 0 0 1.1667 -110.85 -97.982)" d="m409.08 317.28c0 2.5969-2.1052 4.702-4.702 4.702-2.5969 0-4.702-2.1052-4.702-4.702s2.1052-4.702 4.702-4.702c2.5969 0 4.702 2.1052 4.702 4.702z" fill="#fff" fill-rule="evenodd"/>
     <path transform="matrix(.033477 .19292 -.39889 .01619 459.28 241.54)" d="m234.72 306.72c-19.003 25.071-53.536 29.028-77.132 8.8379-16.274-13.925-23.69-36.464-19.125-58.129" fill="none" stroke="#999" stroke-linecap="round" stroke-width="25.146"/>
     <path transform="matrix(.033477 .19292 -.39889 .01619 459.28 241.54)" d="m234.72 306.72c-19.003 25.071-53.536 29.028-77.132 8.8379-16.274-13.925-23.69-36.464-19.125-58.129" fill="none" filter="url(#a)" stroke="#fff" stroke-linecap="round" stroke-width="10.777"/>
    </g>
    <g transform="translate(2.7429 239.49)">
     <path transform="matrix(1.1667 0 0 1.1667 -110.85 -97.982)" d="m409.08 317.28c0 2.5969-2.1052 4.702-4.702 4.702-2.5969 0-4.702-2.1052-4.702-4.702s2.1052-4.702 4.702-4.702c2.5969 0 4.702 2.1052 4.702 4.702z" fill="#fff" fill-rule="evenodd"/>
     <path transform="matrix(.033477 .19292 -.39889 .01619 459.28 241.54)" d="m234.72 306.72c-19.003 25.071-53.536 29.028-77.132 8.8379-16.274-13.925-23.69-36.464-19.125-58.129" fill="none" stroke="#999" stroke-linecap="round" stroke-width="25.146"/>
     <path transform="matrix(.033477 .19292 -.39889 .01619 459.28 241.54)" d="m234.72 306.72c-19.003 25.071-53.536 29.028-77.132 8.8379-16.274-13.925-23.69-36.464-19.125-58.129" fill="none" filter="url(#a)" stroke="#fff" stroke-linecap="round" stroke-width="10.777"/>
    </g>
    <g transform="translate(2.7429 259.45)">
     <path transform="matrix(1.1667 0 0 1.1667 -110.85 -97.982)" d="m409.08 317.28c0 2.5969-2.1052 4.702-4.702 4.702-2.5969 0-4.702-2.1052-4.702-4.702s2.1052-4.702 4.702-4.702c2.5969 0 4.702 2.1052 4.702 4.702z" fill="#fff" fill-rule="evenodd"/>
     <path transform="matrix(.033477 .19292 -.39889 .01619 459.28 241.54)" d="m234.72 306.72c-19.003 25.071-53.536 29.028-77.132 8.8379-16.274-13.925-23.69-36.464-19.125-58.129" fill="none" stroke="#999" stroke-linecap="round" stroke-width="25.146"/>
     <path transform="matrix(.033477 .19292 -.39889 .01619 459.28 241.54)" d="m234.72 306.72c-19.003 25.071-53.536 29.028-77.132 8.8379-16.274-13.925-23.69-36.464-19.125-58.129" fill="none" filter="url(#a)" stroke="#fff" stroke-linecap="round" stroke-width="10.777"/>
    </g>
    <g transform="translate(2.7429 279.41)">
     <path transform="matrix(1.1667 0 0 1.1667 -110.85 -97.982)" d="m409.08 317.28c0 2.5969-2.1052 4.702-4.702 4.702-2.5969 0-4.702-2.1052-4.702-4.702s2.1052-4.702 4.702-4.702c2.5969 0 4.702 2.1052 4.702 4.702z" fill="#fff" fill-rule="evenodd"/>
     <path transform="matrix(.033477 .19292 -.39889 .01619 459.28 241.54)" d="m234.72 306.72c-19.003 25.071-53.536 29.028-77.132 8.8379-16.274-13.925-23.69-36.464-19.125-58.129" fill="none" stroke="#999" stroke-linecap="round" stroke-width="25.146"/>
     <path transform="matrix(.033477 .19292 -.39889 .01619 459.28 241.54)" d="m234.72 306.72c-19.003 25.071-53.536 29.028-77.132 8.8379-16.274-13.925-23.69-36.464-19.125-58.129" fill="none" filter="url(#a)" stroke="#fff" stroke-linecap="round" stroke-width="10.777"/>
    </g>
    <g transform="translate(.74285 299.36)">
     <path transform="matrix(1.1667 0 0 1.1667 -110.85 -97.982)" d="m409.08 317.28c0 2.5969-2.1052 4.702-4.702 4.702-2.5969 0-4.702-2.1052-4.702-4.702s2.1052-4.702 4.702-4.702c2.5969 0 4.702 2.1052 4.702 4.702z" fill="#fff" fill-rule="evenodd"/>
     <path transform="matrix(.033477 .19292 -.39889 .01619 459.28 241.54)" d="m234.72 306.72c-19.003 25.071-53.536 29.028-77.132 8.8379-16.274-13.925-23.69-36.464-19.125-58.129" fill="none" stroke="#999" stroke-linecap="round" stroke-width="25.146"/>
     <path transform="matrix(.033477 .19292 -.39889 .01619 459.28 241.54)" d="m234.72 306.72c-19.003 25.071-53.536 29.028-77.132 8.8379-16.274-13.925-23.69-36.464-19.125-58.129" fill="none" filter="url(#a)" stroke="#fff" stroke-linecap="round" stroke-width="10.777"/>
    </g>
   </g>
   <path d="m379.26 262.87h233.11c11.754 0 21.217 9.113 21.217 20.433v301.5c0 11.32-9.4629 20.433-21.217 20.433h-233.11z" fill="#803300" fill-rule="evenodd"/>
   <rect x="416.13" y="307.09" width="171.87" height="79.37" ry="11.068" fill="none" opacity=".42254" stroke="#2b1100" stroke-linecap="round" stroke-linejoin="round" stroke-width="2.8899"/>
   <g fill="#fff" opacity=".23474">
    <rect transform="scale(1,-1)" x="472.89" y="-331.38" width="106.69" height="1.5673" ry=".78367"/>
    <rect transform="scale(1,-1)" x="472.55" y="-345.88" width="107.36" height="1.5673" ry=".78367"/>
    <rect transform="scale(1,-1)" x="472.89" y="-360.38" width="106.69" height="1.5673" ry=".78367"/>
   </g>
   <rect x="427.32" y="323.77" width="37.518" height="42.597" ry="0" fill="#ccc" opacity=".042254" stroke="#2b1100" stroke-linecap="round" stroke-linejoin="round" stroke-width=".98916"/>
   <rect x="347.86" y="240.3" width="305.33" height="393.93" ry="23.51" fill="url(#b)" fill-rule="evenodd"/>
   <rect x="347.86" y="240.3" width="305.33" height="393.93" ry="23.51" fill="#fff" fill-rule="evenodd" opacity=".046948"/>
  </g>
 </g>
</svg>
